<svg width="22" height="21" viewBox="0 0 22 21" fill="none" xmlns="http://www.w3.org/2000/svg">
<path d="M5.10002 6.5H16.9C17.6377 6.5 18.2659 7.03638 18.3814 7.76496L19.968 17.765C20.1125 18.6757 19.4087 19.5 18.4865 19.5H3.51348C2.59131 19.5 1.88751 18.6757 2.03201 17.765L3.61855 7.76496C3.73414 7.03638 4.36233 6.5 5.10002 6.5Z" stroke="white" stroke-width="3"/>
<mask id="path-2-inside-1_450_28" fill="white">
<path d="M6 2C6 0.895431 6.89543 0 8 0H14C15.1046 0 16 0.895431 16 2V3H6V2Z"/>
</mask>
<path d="M4 2C4 -0.209139 5.79086 -2 8 -2H14C16.2091 -2 18 -0.209139 18 2H14H8H4ZM16 3H6H16ZM4 3V2C4 -0.209139 5.79086 -2 8 -2V2V3H4ZM14 -2C16.2091 -2 18 -0.209139 18 2V3H14V2V-2Z" fill="white" mask="url(#path-2-inside-1_450_28)"/>
</svg>
