<svg width="22" height="20" viewBox="0 0 22 20" fill="none" xmlns="http://www.w3.org/2000/svg">
<path d="M5.10002 4.75H16.9C18.0065 4.75 18.9488 5.55457 19.1222 6.64744L20.7087 16.6474C20.9255 18.0136 19.8698 19.25 18.4865 19.25H3.51348C2.13023 19.25 1.07453 18.0136 1.29128 16.6474L2.87782 6.64744C3.0512 5.55457 3.99349 4.75 5.10002 4.75Z" stroke="black" stroke-width="1.5"/>
<mask id="path-2-inside-1_339_27" fill="white">
<path d="M6 2C6 0.895431 6.89543 0 8 0H14C15.1046 0 16 0.895431 16 2V3H6V2Z"/>
</mask>
<path d="M4.5 2C4.5 0.0670034 6.067 -1.5 8 -1.5H14C15.933 -1.5 17.5 0.0670034 17.5 2H14.5C14.5 1.72386 14.2761 1.5 14 1.5H8C7.72386 1.5 7.5 1.72386 7.5 2H4.5ZM16 3H6H16ZM4.5 3V2C4.5 0.0670034 6.067 -1.5 8 -1.5V1.5C7.72386 1.5 7.5 1.72386 7.5 2V3H4.5ZM14 -1.5C15.933 -1.5 17.5 0.0670034 17.5 2V3H14.5V2C14.5 1.72386 14.2761 1.5 14 1.5V-1.5Z" fill="black" mask="url(#path-2-inside-1_339_27)"/>
</svg>
