<svg width="44" height="12" viewBox="0 0 44 12" fill="none" xmlns="http://www.w3.org/2000/svg">
<path d="M6.16406 1.31836C6.16406 1.97461 5.68359 2.51367 4.72266 2.93555C5.51953 3.08398 6.03906 3.44531 6.28125 4.01953C6.35938 4.21094 6.39844 4.46484 6.39844 4.78125C6.39844 5.09375 6.35156 5.43359 6.25781 5.80078C6.16797 6.16406 6.02344 6.50781 5.82422 6.83203C5.62891 7.15234 5.37891 7.44531 5.07422 7.71094C4.76953 7.97656 4.4043 8.20508 3.97852 8.39648C3.08398 8.79883 1.97852 9 0.662109 9C0.787109 8.70312 0.859375 8.45508 0.878906 8.25586C0.902344 8.05664 0.921875 7.84375 0.9375 7.61719C0.96875 7.15625 0.984375 6.53711 0.984375 5.75977C0.984375 4.81836 0.96875 3.95898 0.9375 3.18164L0.873047 1.57031C0.857422 1.16406 0.822266 0.880859 0.767578 0.720703C0.681641 0.466797 0.541016 0.238281 0.345703 0.0351562H3.44531C4.39062 0.0351562 5.07422 0.128906 5.49609 0.316406C5.94141 0.511719 6.16406 0.845703 6.16406 1.31836ZM2.34961 4.35352L2.35547 7.33008C2.35547 7.55273 2.37891 7.7207 2.42578 7.83398C2.47656 7.94727 2.57617 8.00391 2.72461 8.00391C3.32617 8.00391 3.82812 7.71875 4.23047 7.14844C4.64453 6.5625 4.85156 5.80078 4.85156 4.86328C4.85156 4.39844 4.74805 4.05273 4.54102 3.82617C4.26758 3.52539 3.77734 3.375 3.07031 3.375C2.91016 3.375 2.7832 3.38281 2.68945 3.39844C2.5957 3.41016 2.52344 3.44727 2.47266 3.50977C2.39062 3.61133 2.34961 3.89258 2.34961 4.35352ZM4.2832 2.32031C4.4043 2.20312 4.49023 2.07812 4.54102 1.94531C4.5918 1.8125 4.61719 1.68945 4.61719 1.57617C4.61719 1.45898 4.59961 1.3418 4.56445 1.22461C4.5332 1.10742 4.46875 1.00391 4.37109 0.914062C4.15234 0.71875 3.77734 0.621094 3.24609 0.621094C2.84375 0.621094 2.60352 0.662109 2.52539 0.744141C2.44727 0.822266 2.39844 0.927734 2.37891 1.06055C2.35938 1.19336 2.34961 1.36523 2.34961 1.57617C2.34961 1.7832 2.35547 1.95703 2.36719 2.09766C2.37891 2.23438 2.41016 2.34961 2.46094 2.44336C2.55859 2.63477 2.75781 2.73047 3.05859 2.73047C3.36328 2.73047 3.61328 2.69141 3.80859 2.61328C4.00781 2.53516 4.16602 2.4375 4.2832 2.32031ZM9.1493 6.31641C9.1493 7.58203 9.22547 8.47656 9.37781 9H7.6493C7.75867 8.62109 7.82703 8.17383 7.85437 7.6582C7.91297 6.41211 7.94227 5.44531 7.94227 4.75781C7.94227 4.07031 7.94031 3.60938 7.93641 3.375C7.9325 3.13672 7.92859 2.89844 7.92469 2.66016C7.90125 1.8125 7.86023 1.2793 7.80164 1.06055C7.74695 0.837891 7.69422 0.677734 7.64344 0.580078C7.59656 0.478516 7.54187 0.386719 7.47937 0.304688L7.28602 0.0351562H9.42469C9.31531 0.429687 9.25086 0.808594 9.23133 1.17188C9.2157 1.53125 9.20203 1.84961 9.19031 2.12695C9.1825 2.4043 9.17469 2.69336 9.16687 2.99414C9.15906 3.49414 9.15516 4.08984 9.15516 4.78125L9.1493 6.31641ZM14.7537 2.73047C14.8513 2.96484 14.9002 3.22266 14.9002 3.50391C14.9002 3.78125 14.8904 4.01172 14.8709 4.19531C14.8513 4.37891 14.822 4.55664 14.783 4.72852C14.7009 5.0918 14.574 5.38281 14.4021 5.60156C14.2302 4.53906 13.9509 3.89453 13.5642 3.66797C13.4275 3.58984 13.2791 3.55078 13.1189 3.55078C12.9627 3.55078 12.8259 3.58789 12.7087 3.66211C12.5916 3.73633 12.492 3.84375 12.4099 3.98438C12.242 4.26562 12.158 4.63086 12.158 5.08008C12.158 5.52539 12.2029 5.91016 12.2927 6.23438C12.3826 6.55469 12.4998 6.84375 12.6443 7.10156C12.7927 7.35547 12.9587 7.57617 13.1423 7.76367C13.3298 7.94727 13.5173 8.10156 13.7048 8.22656C14.0837 8.46875 14.4197 8.58984 14.7127 8.58984C14.697 8.69141 14.6462 8.79102 14.5603 8.88867C14.4744 8.98633 14.3806 9.0625 14.2791 9.11719C13.865 9.11719 13.3904 8.97656 12.8552 8.69531C11.8591 8.16797 11.1873 7.39844 10.8396 6.38672C10.7107 6.01562 10.6462 5.63672 10.6462 5.25C10.6462 4.85938 10.6912 4.53125 10.781 4.26562C10.8709 3.99609 11.0017 3.76562 11.1736 3.57422C11.5252 3.16797 12.0134 2.96484 12.6384 2.96484C12.8494 2.96484 13.0545 2.97852 13.2537 3.00586C13.6287 3.05664 13.8904 3.08203 14.0388 3.08203C14.1912 3.08203 14.3259 3.0625 14.4431 3.02344C14.5603 2.98047 14.6638 2.88281 14.7537 2.73047ZM17.6979 6.51562C17.6979 7.64844 17.7741 8.47656 17.9264 9H16.1979C16.3073 8.62109 16.3756 8.17383 16.403 7.6582C16.4616 6.41211 16.4909 5.44531 16.4909 4.75781C16.4909 4.07031 16.4889 3.60938 16.485 3.375C16.4811 3.13672 16.4772 2.89844 16.4733 2.66016C16.4498 1.82031 16.4088 1.28711 16.3502 1.06055C16.2955 0.830078 16.2428 0.664062 16.192 0.5625C16.1178 0.398438 15.9987 0.222656 15.8346 0.0351562H17.9733C17.8639 0.429687 17.7995 0.802734 17.7799 1.1543L17.7389 2.00391C17.7116 2.64844 17.6979 3.13867 17.6979 3.47461C17.6979 3.81055 17.6998 4.03711 17.7037 4.1543C17.7116 4.27148 17.7272 4.36719 17.7506 4.44141C17.7975 4.59766 17.9147 4.67188 18.1022 4.66406C18.2936 4.65625 18.4655 4.61719 18.6178 4.54688C18.7702 4.47266 18.8952 4.37891 18.9928 4.26562C19.1881 4.04688 19.2858 3.81445 19.2858 3.56836C19.2858 3.32227 19.2565 3.16016 19.1979 3.08203H20.8912C20.8444 3.17578 20.8014 3.27148 20.7623 3.36914C20.7272 3.46289 20.6881 3.55859 20.6452 3.65625C20.3678 4.27344 19.9303 4.7207 19.3327 4.99805C19.3717 5.80664 19.6373 6.61719 20.1295 7.42969C20.5944 8.18359 21.1061 8.70703 21.6647 9H19.7018C19.3112 8.8125 18.9948 8.18359 18.7526 7.11328C18.6705 6.75 18.6159 6.40039 18.5885 6.06445C18.5612 5.72852 18.5182 5.50977 18.4596 5.4082C18.401 5.30273 18.2955 5.25 18.1432 5.25C17.8463 5.25 17.6979 5.52734 17.6979 6.08203V6.51562ZM22.2124 9C22.3921 8.38281 22.482 7.32227 22.482 5.81836C22.482 4.74805 22.3882 4.01758 22.2007 3.62695C22.1538 3.5293 22.1011 3.4375 22.0425 3.35156L21.8491 3.08203H23.8823C23.8237 3.3125 23.7847 3.49609 23.7652 3.63281L23.7241 3.98438C24.1773 3.30469 24.7534 2.96484 25.4527 2.96484C26.1558 2.96484 26.6109 3.3457 26.8179 4.10742C27.1265 3.58008 27.5347 3.23047 28.0425 3.05859C28.2222 2.99609 28.4234 2.96484 28.646 2.96484C28.8726 2.96484 29.0757 3.01367 29.2554 3.11133C29.439 3.20508 29.5933 3.33984 29.7183 3.51562C29.9644 3.87109 30.0874 4.35742 30.0874 4.97461V5.60156C30.0874 6.79688 30.103 7.54688 30.1343 7.85156C30.1695 8.15234 30.1948 8.35156 30.2105 8.44922C30.2339 8.62109 30.273 8.80469 30.3277 9H28.5991C28.771 8.41016 28.857 7.34961 28.857 5.81836C28.857 5.19727 28.8257 4.78125 28.7632 4.57031C28.7007 4.35547 28.6187 4.20117 28.5171 4.10742C28.4195 4.00977 28.2847 3.96094 28.1128 3.96094C27.6089 3.96094 27.2085 4.25781 26.9116 4.85156V5.60156C26.9116 6.79688 26.9273 7.54688 26.9585 7.85156C26.9937 8.15234 27.0191 8.35156 27.0347 8.44922C27.0581 8.62109 27.0972 8.80469 27.1519 9H25.4234C25.5991 8.39844 25.687 7.33789 25.687 5.81836C25.687 5.18164 25.6558 4.76172 25.5933 4.55859C25.5308 4.35156 25.4507 4.20117 25.353 4.10742C25.2554 4.00977 25.1206 3.96094 24.9487 3.96094C24.7808 3.96094 24.6284 3.99414 24.4917 4.06055C24.355 4.12695 24.232 4.21484 24.1226 4.32422C23.9155 4.52734 23.7534 4.78906 23.6362 5.10938C23.6284 5.22266 23.6245 5.33984 23.6245 5.46094V5.81836C23.6245 7.32227 23.7144 8.38281 23.8941 9H22.2124ZM26.7183 5.36719L26.6948 5.47266L26.7183 5.36719ZM31.9359 9C32.1156 8.38281 32.2055 7.32227 32.2055 5.81836C32.2055 4.74805 32.1117 4.01758 31.9242 3.62695C31.8773 3.5293 31.8246 3.4375 31.766 3.35156L31.5727 3.08203H33.6059C33.5473 3.27734 33.5082 3.46094 33.4887 3.63281L33.4418 4.05469C33.9145 3.32812 34.516 2.96484 35.2465 2.96484C35.7191 2.96484 36.0883 3.14844 36.3539 3.51562C36.6117 3.875 36.7406 4.36133 36.7406 4.97461V5.60156C36.7406 6.67578 36.7504 7.33203 36.7699 7.57031C36.7895 7.80859 36.8051 7.99023 36.8168 8.11523C36.8285 8.24023 36.8422 8.35156 36.8578 8.44922C36.8852 8.63281 36.9262 8.81641 36.9809 9H35.2641C35.4438 8.38281 35.5336 7.32227 35.5336 5.81836C35.5336 5.2168 35.4945 4.80469 35.4164 4.58203C35.3422 4.35938 35.2523 4.20117 35.1469 4.10742C35.0414 4.00977 34.9027 3.96094 34.7309 3.96094C34.4145 3.96094 34.1273 4.08594 33.8695 4.33594C33.6469 4.55078 33.477 4.82422 33.3598 5.15625C33.352 5.26172 33.348 5.37109 33.348 5.48438V5.81836C33.348 7.32227 33.4379 8.38281 33.6176 9H31.9359ZM41.8177 7.06055L41.8235 5.75977C41.8235 4.94336 41.802 4.41016 41.7591 4.16016C41.7161 3.91016 41.6809 3.73633 41.6536 3.63867C41.6302 3.53711 41.6009 3.44336 41.5657 3.35742L41.4544 3.08203H43.1829L43.1536 3.35156C43.1302 3.53906 43.1145 3.8125 43.1067 4.17188L43.0833 5.0625C43.0638 5.74609 43.054 6.38477 43.054 6.97852C43.054 7.57227 43.0169 8.08008 42.9427 8.50195C42.8723 8.92383 42.7766 9.29492 42.6555 9.61523C42.5345 9.93555 42.3958 10.2109 42.2395 10.4414C42.0833 10.6758 41.9192 10.8711 41.7473 11.0273C41.4505 11.3086 41.1184 11.5117 40.7513 11.6367C40.6731 11.6055 40.597 11.5469 40.5227 11.4609C40.4524 11.3789 40.4095 11.3008 40.3938 11.2266C40.7376 11.0508 41.013 10.7812 41.22 10.418C41.513 9.90234 41.6985 9.1582 41.7766 8.18555C41.3235 8.80664 40.7669 9.11719 40.1067 9.11719C39.638 9.11719 39.2747 8.93359 39.0169 8.56641C38.7708 8.21094 38.6477 7.72266 38.6477 7.10156V6.31055C38.6477 6.13477 38.6458 5.95508 38.6419 5.77148V5.23828C38.6341 4.89844 38.6204 4.63477 38.6009 4.44727C38.5852 4.25586 38.5657 4.09766 38.5423 3.97266C38.5227 3.84375 38.4973 3.73047 38.4661 3.63281C38.4348 3.53125 38.3997 3.4375 38.3606 3.35156L38.2317 3.08203H40.0188C39.9173 3.64062 39.8665 4.69727 39.8665 6.25195C39.8665 6.88477 39.8997 7.30664 39.9661 7.51758C40.0325 7.72852 40.1145 7.88281 40.2122 7.98047C40.3138 8.07422 40.4427 8.12109 40.5989 8.12109C40.7552 8.12109 40.8919 8.09766 41.0091 8.05078C41.1302 8 41.2395 7.93359 41.3372 7.85156C41.5286 7.70312 41.6888 7.49805 41.8177 7.23633V7.06055ZM42.0403 6.59766L42.0052 6.73828L42.0403 6.59766Z" fill="black"/>
</svg>
